<svg width="20" height="20" viewBox="0 0 20 20" fill="none" xmlns="http://www.w3.org/2000/svg">
<path d="M8.82812 15.2344H11.1719V20H8.82812V15.2344Z" fill="#393939"/>
<path d="M4.72746 20H7.65625V14.0625H12.3438V20H15.2864V0H4.72746V20ZM12.9297 2.34375H14.1016V3.51562H12.9297V2.34375ZM12.9297 4.6875H14.1016V5.85938H12.9297V4.6875ZM12.9297 7.03125H14.1016V8.20312H12.9297V7.03125ZM12.9297 9.375H14.1016V10.5469H12.9297V9.375ZM12.9297 11.7188H14.1016V12.8906H12.9297V11.7188ZM10.5859 2.34375H11.7578V3.51562H10.5859V2.34375ZM10.5859 4.6875H11.7578V5.85938H10.5859V4.6875ZM10.5859 7.03125H11.7578V8.20312H10.5859V7.03125ZM10.5859 9.375H11.7578V10.5469H10.5859V9.375ZM10.5859 11.7188H11.7578V12.8906H10.5859V11.7188ZM8.24219 2.34375H9.41407V3.51562H8.24219V2.34375ZM8.24219 4.6875H9.41407V5.85938H8.24219V4.6875ZM8.24219 7.03125H9.41407V8.20312H8.24219V7.03125ZM8.24219 9.375H9.41407V10.5469H8.24219V9.375ZM8.24219 11.7188H9.41407V12.8906H8.24219V11.7188ZM5.89844 2.34375H7.07031V3.51562H5.89844V2.34375ZM5.89844 4.6875H7.07031V5.85938H5.89844V4.6875ZM5.89844 7.03125H7.07031V8.20312H5.89844V7.03125ZM5.89844 9.375H7.07031V10.5469H5.89844V9.375ZM5.89844 11.7188H7.07031V12.8906H5.89844V11.7188Z" fill="#393939"/>
<path d="M16.4311 4.6875H20V20H16.4311V4.6875Z" fill="#393939"/>
<path d="M0 4.6875H3.55453V20H0V4.6875Z" fill="#393939"/>
</svg>
