<svg width="20" height="20" viewBox="0 0 20 20" fill="none" xmlns="http://www.w3.org/2000/svg">
<path d="M10.5726 7.11301H13.8566L13.0764 4.77222H10.5726V7.11301Z" fill="#393939"/>
<path d="M2.965 10.6242C3.92051 10.6242 4.77201 10.163 5.30579 9.45209C5.83956 10.163 6.69107 10.6242 7.64657 10.6242C8.60208 10.6242 9.45358 10.163 9.98736 9.45209C10.5211 10.163 11.3726 10.6242 12.3281 10.6242C13.2837 10.6242 14.1352 10.163 14.6689 9.45209C15.2027 10.163 16.0542 10.6242 17.0097 10.6242C18.3384 10.6242 19.5691 9.71231 19.8594 8.28342H0.115364C0.401759 9.69405 1.61589 10.6242 2.965 10.6242Z" fill="#393939"/>
<path d="M5.66388 4.77222H1.87154L0.31105 7.11301H4.88366L5.66388 4.77222Z" fill="#393939"/>
<path d="M9.40216 7.11301V4.77222H6.8983L6.11808 7.11301H9.40216Z" fill="#393939"/>
<path d="M2.3798 0.0126343H17.5949V3.60184H2.3798V0.0126343Z" fill="#393939"/>
<path d="M15.0911 7.11301H19.6637L18.1032 4.77222H14.3108L15.0911 7.11301Z" fill="#393939"/>
<path d="M18.7653 18.817V18.2318H9.40216V19.9874C9.6822 19.9874 20.5924 19.9874 19.9747 19.9874V18.817H18.7653Z" fill="#393939"/>
<path d="M9.40216 14.7206H11.743V17.0614H9.40216V14.7206Z" fill="#393939"/>
<path d="M15.2541 15.891H18.7653V17.0614H15.2541V15.891Z" fill="#393939"/>
<path d="M18.7653 11.3888C18.2203 11.6498 17.6213 11.7946 17.0097 11.7946C16.1674 11.7946 15.3501 11.5294 14.6689 11.0562C13.9877 11.5294 13.1705 11.7946 12.3281 11.7946C11.4858 11.7946 10.6686 11.5294 9.98736 11.0562C9.80213 11.1849 9.60534 11.2948 9.40216 11.3916V13.5502H11.743V12.3798H15.2541V14.7206H18.7653V11.3888Z" fill="#393939"/>
<path d="M12.9133 13.5502H14.0837V17.0614H12.9133V13.5502Z" fill="#393939"/>
<path d="M5.30579 11.0562C4.62458 11.5294 3.80737 11.7946 2.965 11.7946C2.35378 11.7946 1.7559 11.65 1.20941 11.389V18.817H0V19.9874C0.166274 19.9874 8.40413 19.9874 8.23177 19.9874V11.7489C8.03889 11.7772 7.84367 11.7946 7.64657 11.7946C6.8042 11.7946 5.98699 11.5294 5.30579 11.0562V11.0562ZM7.06138 17.0614H5.89098V13.5502H7.06138V17.0614Z" fill="#393939"/>
</svg>
