<svg width="14" height="14" viewBox="0 0 14 14" fill="none" xmlns="http://www.w3.org/2000/svg">
<g clip-path="url(#clip0)">
<path d="M13.6358 11.9034L8.14617 6.41375L1.73242 0H1.23119L1.12884 0.260066C0.85871 0.946504 0.743292 1.64858 0.795108 2.29031C0.854171 3.02181 1.13207 3.65512 1.5988 4.12185L6.60571 9.12877L7.26612 8.46836L11.895 13.6443C12.3555 14.1048 13.148 14.1322 13.6358 13.6443C14.1158 13.1643 14.1158 12.3834 13.6358 11.9034Z" fill="#393939"/>
<path d="M4.28553 7.96912L0.364134 11.8905C-0.115803 12.3704 -0.115803 13.1514 0.364134 13.6314C0.820064 14.0873 1.60879 14.1275 2.10497 13.6314L6.0264 9.70993L4.28553 7.96912Z" fill="#393939"/>
<path d="M13.4054 2.33101L11.1809 4.55543L10.6006 3.97514L12.825 1.7507L12.2447 1.17041L10.0203 3.39482L9.44004 2.81453L11.6645 0.590119L11.0842 0.00985718L8.18278 2.9113C7.82783 3.26625 7.61589 3.73755 7.58592 4.23843C7.57834 4.36533 7.54958 4.49016 7.50186 4.60888L9.38664 6.49366C9.50537 6.44589 9.63022 6.41715 9.75709 6.40958C10.258 6.37969 10.7293 6.1677 11.0842 5.81275L13.9857 2.91133L13.4054 2.33101Z" fill="#393939"/>
</g>
<defs>
<clipPath id="clip0">
<rect width="14" height="14" fill="white"/>
</clipPath>
</defs>
</svg>
